{"title":"The.Skulls.2000.DVDRip.x264.AAC-AUS","uid":6879874,"size":934118027,"categoryP":"video","categoryS":"movies","magnet":"?xt=urn:btih:6c4567ba0ab3b4c5cf596a96aa71e1ef6cb6a465&amp;dn=The.Skulls.2000.DVDRip.x264.AAC-AUS&amp;tr=udp%3A%2F%2Ftracker.openbittorrent.com%3A80&amp;tr=udp%3A%2F%2Fopen.demonii.com%3A1337&amp;tr=udp%3A%2F%2Ftracker.coppersurfer.tk%3A6969&amp;tr=udp%3A%2F%2Fexodus.desync.com%3A6969","seeders":7,"leechers":3,"uploader":".morden","files":-1,"time":1323616072,"description":"Luke McNamara, a college senior from a working class background joins a secret elitist college fraternity organization called &quot;The Skulls&quot;..\n\nGeneral \nComplete name : The.Skulls.2000.DVDRip.x264.AAC-AUS.mp4 \nFormat : MPEG-4 \nFormat profile : Base Media / Version 2 \nCodec ID : mp42 \nFile size : 890 MiB \nDuration : 1h 41mn \nOverall bit rate : 1 221 Kbps\n\nVideo \nID : 1 \nFormat : AVC \nFormat/Info : Advanced Video Codec \nFormat profile : &lt;a class=&quot;__cf_email__&quot; href=&quot;/cdn-cgi/l/email-protection&quot; data-cfemail=&quot;135b7a747b535f203d22&quot;&gt;[email&amp;#160;protected]&lt;/a&gt;&lt;script cf-hash='f9e31' type=&quot;text/javascript&quot;&gt;\n/* &lt;![CDATA[ */!function(){try{var t=&quot;currentScript&quot;in document?document.currentScript:function(){for(var t=document.getElementsByTagName(&quot;script&quot;),e=t.length;e--;)if(t[e].getAttribute(&quot;cf-hash&quot;))return t[e]}();if(t&amp;&amp;t.previousSibling){var e,r,n,i,c=t.previousSibling,a=c.getAttribute(&quot;data-cfemail&quot;);if(a){for(e=&quot;&quot;,r=parseInt(a.substr(0,2),16),n=2;a.length-n;n+=2)i=parseInt(a.substr(n,2),16)^r,e+=String.fromCharCode(i);e=document.createTextNode(e),c.parentNode.replaceChild(e,c)}}}catch(u){}}();/* ]]&gt; */&lt;/script&gt; \nFormat settings, CABAC : Yes \nFormat settings, ReFrames : 8 frames \nCodec ID : avc1 \nCodec ID/Info : Advanced Video Coding \nDuration : 1h 41mn \nBit rate mode : Variable \nBit rate : 1 024 Kbps \nWidth : 720 pixels \nHeight : 416 pixels \nDisplay aspect ratio : 16:9 \nFrame rate mode : Constant \nFrame rate : 25.000 fps \nColor space : YUV \nChroma subsampling : 4:2:0 \nBit depth : 8 bits \nScan type : Progressive \nBits/(Pixel*Frame) : 0.137 \nStream size : 746 MiB (84%) \nWriting library : x264 core 112\n\nAudio \nID : 2 \nFormat : AAC \nFormat/Info : Advanced Audio Codec \nFormat profile : LC \nCodec ID : 40 \nDuration : 1h 41mn \nBit rate mode : Variable \nBit rate : 192 Kbps \nMaximum bit rate : 298 Kbps \nChannel(s) : 6 channels \nChannel positions : Front: L C R, Side: L R, LFE \nSampling rate : 48.0 KHz \nCompression mode : Lossy \nStream size : 140 MiB (16%) \nLanguage : English","torrent":{"xt":"urn:btih:6c4567ba0ab3b4c5cf596a96aa71e1ef6cb6a465","amp;dn":"The.Skulls.2000.DVDRip.x264.AAC-AUS","amp;tr":["udp%3A%2F%2Ftracker.openbittorrent.com%3A80","udp%3A%2F%2Fopen.demonii.com%3A1337","udp%3A%2F%2Ftracker.coppersurfer.tk%3A6969","udp%3A%2F%2Fexodus.desync.com%3A6969"],"infoHash":"6c4567ba0ab3b4c5cf596a96aa71e1ef6cb6a465","infoHashBuffer":{"type":"Buffer","data":[108,69,103,186,10,179,180,197,207,89,106,150,170,113,225,239,108,182,164,101]},"announce":[],"urlList":[]}}